Coordinates
version=1
nRows=60
nColumns=12
inDegrees=yes

Units are S.I. units (second, meters, Newtons, ...)
Angles are in degrees

endheader
time	SC_y	SC_z	SC_x	AC_y	AC_z	AC_x	GH_y	GH_z	GH_yy	EL_x	PS_y
       0.0              -35.73         -4.656          70.94          36.44         -11.72          -3.56          24.87          76.65         -99.33          103.2          125.1
 0.0007222              -35.74          -4.65          70.94          36.44         -11.72          -3.56          24.87          76.64         -99.32          103.2          125.1
  0.001444              -35.74         -4.643          70.94          36.44         -11.72         -3.561          24.87          76.63         -99.32          103.2          125.1
  0.002167              -35.74         -4.636          70.94          36.44         -11.72         -3.561          24.87          76.61         -99.32          103.2          125.1
  0.002889              -35.74         -4.628          70.93          36.44         -11.72         -3.561          24.87           76.6         -99.31          103.2          125.1
  0.003611              -35.75          -4.62          70.93          36.45         -11.71         -3.561          24.87          76.58         -99.31          103.2          125.1
  0.004333              -35.75         -4.611          70.93          36.45         -11.71         -3.562          24.87          76.56         -99.31          103.2          125.1
  0.005055              -35.76         -4.602          70.93          36.45         -11.71         -3.562          24.87          76.54          -99.3          103.2          125.1
  0.005777              -35.76         -4.592          70.93          36.45         -11.71         -3.562          24.87          76.52          -99.3          103.1          125.1
    0.0065              -35.76         -4.581          70.93          36.46          -11.7         -3.563          24.88           76.5         -99.29          103.1          125.1
  0.007222              -35.77          -4.57          70.93          36.46          -11.7         -3.563          24.88          76.47         -99.29          103.1          125.1
  0.007944              -35.77         -4.557          70.92          36.46          -11.7         -3.563          24.88          76.45         -99.28          103.1          125.1
  0.008666              -35.78         -4.544          70.92          36.47          -11.7         -3.564          24.88          76.42         -99.27          103.1          125.0
  0.009388              -35.78          -4.53          70.92          36.47         -11.69         -3.564          24.88          76.39         -99.27          103.1          125.0
   0.01011              -35.79         -4.514          70.92          36.48         -11.69         -3.565          24.88          76.36         -99.26          103.1          125.0
   0.01083               -35.8         -4.497          70.91          36.48         -11.68         -3.565          24.88          76.32         -99.25          103.1          125.0
   0.01155               -35.8         -4.479          70.91          36.49         -11.68         -3.566          24.88          76.28         -99.24          103.1          125.0
   0.01228              -35.81         -4.459          70.91          36.49         -11.67         -3.567          24.88          76.24         -99.23          103.1          125.0
     0.013              -35.82         -4.437          70.91           36.5         -11.67         -3.567          24.89          76.19         -99.22          103.1          125.0
   0.01372              -35.83         -4.413           70.9           36.5         -11.66         -3.568          24.89          76.14         -99.21          103.1          124.9
   0.01444              -35.84         -4.387           70.9          36.51         -11.66         -3.569          24.89          76.09          -99.2          103.1          124.9
   0.01517              -35.85         -4.358          70.89          36.52         -11.65          -3.57          24.89          76.03         -99.19          103.1          124.9
   0.01589              -35.86         -4.326          70.89          36.53         -11.64         -3.571           24.9          75.96         -99.17          103.1          124.9
   0.01661              -35.88          -4.29          70.88          36.54         -11.63         -3.572           24.9          75.88         -99.15          103.0          124.9
   0.01733              -35.89         -4.251          70.88          36.55         -11.62         -3.573           24.9           75.8         -99.14          103.0          124.8
   0.01805              -35.91         -4.207          70.87          36.56         -11.61         -3.575           24.9          75.71         -99.12          103.0          124.8
   0.01878              -35.93         -4.158          70.86          36.57          -11.6         -3.577          24.91           75.6         -99.09          103.0          124.8
    0.0195              -35.95         -4.103          70.85          36.59         -11.59         -3.578          24.91          75.49         -99.07          103.0          124.7
   0.02022              -35.98          -4.04          70.85          36.61         -11.57          -3.58          24.92          75.36         -99.04          103.0          124.7
   0.02094               -36.0         -3.969          70.83          36.62         -11.55         -3.583          24.92          75.21          -99.0          102.9          124.6
   0.02167              -36.03         -3.888          70.82          36.65         -11.53         -3.585          24.93          75.04         -98.96          102.9          124.5
   0.02239              -36.07         -3.795          70.81          36.67         -11.51         -3.588          24.94          74.84         -98.92          102.9          124.5
   0.02311              -36.11         -3.688          70.79           36.7         -11.49         -3.592          24.94          74.61         -98.87          102.8          124.4
   0.02383              -36.16         -3.563          70.77          36.74         -11.46         -3.596          24.95          74.35         -98.81          102.8          124.3
   0.02455              -36.22         -3.417          70.75          36.78         -11.42         -3.601          24.97          74.04         -98.74          102.7          124.2
   0.02528              -36.29         -3.245          70.72          36.82         -11.38         -3.606          24.98          73.68         -98.66          102.7          124.0
     0.026              -36.37          -3.04          70.69          36.88         -11.33         -3.613           25.0          73.25         -98.57          102.6          123.9
   0.02672              -36.46         -2.795          70.66          36.95         -11.27         -3.621          25.01          72.73         -98.45          102.5          123.7
   0.02744              -36.58         -2.498          70.61          37.03         -11.19         -3.631          25.04          72.11         -98.31          102.4          123.5
   0.02817              -36.72         -2.136          70.56          37.13         -11.11         -3.643          25.07          71.34         -98.14          102.3          123.2
   0.02889               -36.9         -1.689          70.49          37.25          -11.0         -3.658           25.1           70.4         -97.93          102.1          122.9
   0.02961              -37.11         -1.131           70.4           37.4         -10.86         -3.676          25.14          69.23         -97.67          101.9          122.4
   0.03033              -37.39        -0.4284           70.3          37.59         -10.69         -3.699           25.2          67.75         -97.34          101.7          121.9
   0.03105              -37.74         0.4647          70.16          37.84         -10.47         -3.728          25.27          65.87         -96.92          101.3          121.2
   0.03178              -38.19          1.608          69.99          38.15         -10.19         -3.766          25.36          63.46         -96.38          100.9          120.3
    0.0325              -38.76          3.075          69.76          38.55          -9.83         -3.814          25.47          60.37         -95.69          100.4          119.2
   0.03322              -39.49          4.949          69.48          39.07         -9.371         -3.875          25.62          56.42         -94.81          99.74          117.7
   0.03394              -40.42          7.305          69.12          39.71         -8.795         -3.952           25.8          51.46          -93.7           98.9          115.9
   0.03466              -41.54          10.18          68.68           40.5         -8.092         -4.047          26.02          45.41         -92.35          97.88          113.7
   0.03539              -42.84           13.5          68.18          41.41         -7.277         -4.156          26.28           38.4         -90.78          96.69          111.2
   0.03611              -44.25          17.11          67.63           42.4         -6.395         -4.274          26.56           30.8         -89.09           95.4          108.4
   0.03683              -45.66          20.71          67.08          43.38         -5.512         -4.392          26.84          23.21         -87.39          94.12          105.6
   0.03755              -46.96          24.04          66.57          44.29         -4.698         -4.501           27.1           16.2         -85.83          92.93          103.0
   0.03828              -48.09          26.91          66.14          45.08         -3.995         -4.596          27.32          10.15         -84.48           91.9          100.8
     0.039              -49.01          29.27          65.78          45.73         -3.418         -4.673           27.5           5.19         -83.37          91.06          99.02
   0.03972              -49.74          31.14          65.49          46.24         -2.959         -4.734          27.65          1.242         -82.49          90.39          97.58
   0.04044              -50.32          32.61          65.27          46.64           -2.6         -4.782          27.76         -1.848          -81.8          89.87          96.45
   0.04116              -50.77          33.75           65.1          46.95          -2.32          -4.82          27.85         -4.256         -81.26          89.46          95.57
   0.04189              -51.11          34.64          64.96           47.2         -2.102         -4.849          27.92         -6.138         -80.84          89.14          94.88
   0.04261              -51.39          35.35          64.85          47.39          -1.93         -4.872          27.98         -7.618         -80.51          88.89          94.34
